<svg width="24" height="24" viewBox="0 0 24 24" fill="none" xmlns="http://www.w3.org/2000/svg">
      <path
      fill="currentColor"
        opacity="0.4"
        d="M7.2456 11.5347L3.4902 11.2026C2.6475 11.2026 1.9642 11.8925 1.9642 12.7435C1.9642 13.5945 2.6475 14.2844 3.4902 14.2844L7.2456 13.9523C7.9067 13.9523 8.4427 13.4111 8.4427 12.7435C8.4427 12.0748 7.9067 11.5347 7.2456 11.5347Z"
      ></path>
      <path
      fill="currentColor"
        d="M19.8563 11.5957C19.7976 11.5365 19.5783 11.286 19.3723 11.078C18.1707 9.77526 15.0334 7.64503 13.3921 6.9931C13.143 6.8891 12.5128 6.66769 12.1751 6.65204C11.8528 6.65204 11.5449 6.72696 11.2515 6.87457C10.8849 7.08144 10.5925 7.40796 10.4308 7.79263C10.3278 8.05877 10.1662 8.85831 10.1662 8.87285C10.0056 9.74619 9.9181 11.1663 9.9181 12.7363C9.9181 14.2303 10.0056 15.5923 10.1374 16.4802C10.1518 16.4958 10.3134 17.4877 10.4895 17.8276C10.8118 18.4494 11.4419 18.8341 12.1164 18.8341H12.1751C12.6147 18.8195 13.5383 18.4337 13.5383 18.4203C15.0921 17.7684 18.1553 15.741 19.3867 14.3936C19.3867 14.3936 19.7345 14.0469 19.8851 13.8311C20.1199 13.5202 20.2372 13.1355 20.2372 12.7509C20.2372 12.3215 20.1055 11.9223 19.8563 11.5957Z"
      ></path>
</svg>